<?xml version="1.0" encoding="utf-8"?>
<!-- Generator: Adobe Illustrator 19.1.0, SVG Export Plug-In . SVG Version: 6.00 Build 0)  -->
<svg version="1.1" id="Layer_1" xmlns="http://www.w3.org/2000/svg" xmlns:xlink="http://www.w3.org/1999/xlink" x="0px" y="0px"
	 viewBox="-550 773.6 278.4 278.4" style="enable-background:new -550 773.6 278.4 278.4;" xml:space="preserve">
<style type="text/css">
	.st0{fill:#D57728;}
	.st1{clip-path:url(#SVGID_2_);fill:#93D7ED;}
	.st2{clip-path:url(#SVGID_4_);}
	.st3{fill:#F3F3F3;}
	.st4{fill:#FFFFFF;}
	.st5{clip-path:url(#SVGID_6_);}
	.st6{clip-path:url(#SVGID_8_);}
	.st7{clip-path:url(#SVGID_10_);}
	.st8{fill:#1B75BB;}
	.st9{fill:#E8F2FA;}
	.st10{fill:#2E8240;}
	.st11{fill:#2B388F;}
	.st12{clip-path:url(#SVGID_12_);}
	.st13{fill:#9E834D;}
	.st14{fill:#C6AB71;}
	.st15{fill:#9E834D;stroke:#C6AB71;stroke-width:0.216;stroke-miterlimit:22.9256;}
	.st16{clip-path:url(#SVGID_14_);}
	.st17{fill:#FAAF40;}
	.st18{fill:#744425;}
	.st19{clip-path:url(#SVGID_16_);}
	.st20{opacity:0.3;fill:#6996A7;enable-background:new    ;}
	.st21{fill:#8B6031;}
	.st22{fill:#F05B26;}
	.st23{fill:#F0F1DB;}
	.st24{fill:#FAAF3B;}
	.st25{fill:#F4F2DC;}
	.st26{fill:#BF4839;}
	.st27{fill:#D4AF2C;}
	.st28{opacity:0.1;enable-background:new    ;}
	.st29{fill:#F9C511;}
	.st30{clip-path:url(#SVGID_18_);fill:#4D676E;}
	
		.st31{clip-path:url(#SVGID_20_);fill:none;stroke:#8CA0A6;stroke-width:1.1999;stroke-miterlimit:22.9256;stroke-dasharray:2.3998,3.5997;}
	
		.st32{clip-path:url(#SVGID_22_);fill:none;stroke:#8CA0A6;stroke-width:1.1999;stroke-miterlimit:22.9256;stroke-dasharray:2.3998,3.5997;}
	
		.st33{clip-path:url(#SVGID_24_);fill:none;stroke:#8CA0A6;stroke-width:1.1999;stroke-miterlimit:22.9256;stroke-dasharray:2.3998,3.5997;}
	.st34{clip-path:url(#SVGID_26_);}
	.st35{fill:#FAE651;}
	.st36{fill:#C3B12F;}
	.st37{fill:#2F484F;}
	.st38{fill:#8CA0A6;}
	.st39{fill:#EC1C24;}
	.st40{fill:#FFDD15;}
	.st41{fill:#00A14B;}
</style>
<g>
	<circle class="st0" cx="-410.8" cy="912.8" r="139.2"/>
	<g>
		<g>
			<defs>
				<circle id="SVGID_1_" cx="-410.8" cy="912.8" r="125"/>
			</defs>
			<clipPath id="SVGID_2_">
				<use xlink:href="#SVGID_1_"  style="overflow:visible;"/>
			</clipPath>
			<rect x="-568" y="788.5" class="st1" width="314.5" height="248.7"/>
		</g>
		<g>
			<defs>
				<circle id="SVGID_3_" cx="-410.8" cy="912.8" r="125"/>
			</defs>
			<clipPath id="SVGID_4_">
				<use xlink:href="#SVGID_3_"  style="overflow:visible;"/>
			</clipPath>
			<g class="st2">
				<g>
					<path class="st3" d="M-313.3,831.3c-5.3,0-9.7,3.6-11,8.4c-0.6-0.2-1.3-0.3-1.9-0.3c-4.1,0-7.4,3.3-7.4,7.4
						c0,4,3.3,7.4,7.2,7.7l0,0h13.1V831.3L-313.3,831.3z"/>
					<path class="st4" d="M-313.3,833c-4.9,0-8.1,3.3-9.3,7.8c-0.6-0.2-1.2-0.2-1.8-0.2c-3.8,0-6.9,3.1-6.9,6.9c0,3.7,3.1,6.8,6.7,7
						l0,0h11.3V833z"/>
				</g>
				<g>
					<path class="st3" d="M-292.6,846.9c0-4.1-3.3-7.4-7.4-7.4c-0.7,0-1.5,0.1-2.2,0.3c-1.3-4.9-5.8-8.5-11.1-8.5v23.2h13.3l0,0
						C-295.9,854.5-292.6,850.9-292.6,846.9z"/>
					<path class="st4" d="M-293.2,847.5c0-3.8-3.1-6.9-6.9-6.9c-0.7,0-1.4,0.1-2,0.3c-1.2-4.5-6.4-7.9-11.2-7.9v21.5h13.3
						C-296.2,854.5-293.2,851.2-293.2,847.5z"/>
				</g>
			</g>
		</g>
		<g>
			<defs>
				<circle id="SVGID_5_" cx="-410.8" cy="912.8" r="125"/>
			</defs>
			<clipPath id="SVGID_6_">
				<use xlink:href="#SVGID_5_"  style="overflow:visible;"/>
			</clipPath>
			<g class="st5">
				<g>
					<path class="st3" d="M-499.2,864.8c-5.3,0-9.7,3.6-11,8.4c-0.6-0.2-1.3-0.3-1.9-0.3c-4.1,0-7.4,3.3-7.4,7.4
						c0,4,3.3,7.4,7.2,7.7l0,0h13.1C-499.2,888-499.2,864.8-499.2,864.8z"/>
					<path class="st4" d="M-499.2,866.5c-4.9,0-8.1,3.3-9.3,7.8c-0.6-0.2-1.2-0.2-1.8-0.2c-3.8,0-6.9,3.1-6.9,6.9
						c0,3.7,3.1,6.8,6.7,7l0,0h11.3V866.5z"/>
				</g>
				<g>
					<path class="st3" d="M-478.5,880.4c0-4.1-3.3-7.4-7.4-7.4c-0.7,0-1.5,0.1-2.2,0.3c-1.3-4.9-5.8-8.5-11.1-8.5V888h13.3l0,0
						C-481.8,888-478.5,884.4-478.5,880.4z"/>
					<path class="st4" d="M-479.1,881c0-3.8-3.1-6.9-6.9-6.9c-0.7,0-1.4,0.1-2,0.3c-1.2-4.5-6.4-7.9-11.2-7.9V888h13.3
						C-482.1,888-479.1,884.7-479.1,881z"/>
				</g>
			</g>
		</g>
		<g>
			<defs>
				<circle id="SVGID_7_" cx="-410.8" cy="912.8" r="125"/>
			</defs>
			<clipPath id="SVGID_8_">
				<use xlink:href="#SVGID_7_"  style="overflow:visible;"/>
			</clipPath>
			<g class="st6">
				<g>
					<path class="st3" d="M-405.4,794.3c-5.3,0-9.7,3.6-11,8.4c-0.6-0.2-1.3-0.3-1.9-0.3c-4.1,0-7.4,3.3-7.4,7.4
						c0,4,3.3,7.4,7.2,7.7l0,0h13.1L-405.4,794.3L-405.4,794.3z"/>
					<path class="st4" d="M-405.4,796c-4.9,0-8.1,3.3-9.3,7.8c-0.6-0.2-1.2-0.2-1.8-0.2c-3.8,0-6.9,3.1-6.9,6.9c0,3.7,3.1,6.8,6.7,7
						l0,0h11.3V796z"/>
				</g>
				<g>
					<path class="st3" d="M-384.8,809.9c0-4.1-3.3-7.4-7.4-7.4c-0.7,0-1.5,0.1-2.2,0.3c-1.3-4.9-5.8-8.5-11.1-8.5v23.2h13.3l0,0
						C-388.1,817.5-384.8,813.9-384.8,809.9z"/>
					<path class="st4" d="M-385.3,810.5c0-3.8-3.1-6.9-6.9-6.9c-0.7,0-1.4,0.1-2,0.3c-1.2-4.5-6.4-7.9-11.2-7.9v21.5h13.3
						C-388.4,817.5-385.3,814.2-385.3,810.5z"/>
				</g>
			</g>
		</g>
		<g>
			<defs>
				<circle id="SVGID_9_" cx="-410.8" cy="912.8" r="125"/>
			</defs>
			<clipPath id="SVGID_10_">
				<use xlink:href="#SVGID_9_"  style="overflow:visible;"/>
			</clipPath>
			<g class="st7">
				<rect x="-418.9" y="834.5" class="st8" width="92.7" height="165.4"/>
				<g>
					<rect x="-410.1" y="962.8" class="st9" width="9.9" height="15.3"/>
					<rect x="-397.1" y="962.8" class="st9" width="9.9" height="15.3"/>
					<rect x="-384" y="962.8" class="st9" width="9.9" height="15.3"/>
					<rect x="-410.1" y="940.1" class="st9" width="9.9" height="15.3"/>
					<rect x="-397.1" y="940.1" class="st9" width="9.9" height="15.3"/>
					<rect x="-384" y="940.1" class="st9" width="9.9" height="15.3"/>
					<rect x="-410.1" y="917.3" class="st9" width="9.9" height="15.3"/>
					<rect x="-397.1" y="917.3" class="st9" width="9.9" height="15.3"/>
					<rect x="-384" y="917.3" class="st9" width="9.9" height="15.3"/>
					<rect x="-371" y="962.8" class="st9" width="9.9" height="15.3"/>
					<rect x="-371" y="940.1" class="st9" width="9.9" height="15.3"/>
					<rect x="-371" y="917.3" class="st9" width="9.9" height="15.3"/>
					<rect x="-357.9" y="962.8" class="st9" width="9.9" height="15.3"/>
					<rect x="-357.9" y="940.1" class="st9" width="9.9" height="15.3"/>
					<rect x="-357.9" y="917.3" class="st9" width="9.9" height="15.3"/>
					<rect x="-344.9" y="962.8" class="st9" width="9.9" height="15.3"/>
					<rect x="-344.9" y="940.1" class="st9" width="9.9" height="15.3"/>
					<rect x="-344.9" y="917.3" class="st9" width="9.9" height="15.3"/>
					<rect x="-357.9" y="894.9" class="st9" width="9.9" height="15.3"/>
					<rect x="-357.9" y="872.1" class="st9" width="9.9" height="15.3"/>
					<rect x="-357.9" y="849.4" class="st9" width="9.9" height="15.3"/>
					<rect x="-344.9" y="894.9" class="st9" width="9.9" height="15.3"/>
					<rect x="-344.9" y="872.1" class="st9" width="9.9" height="15.3"/>
					<rect x="-344.9" y="849.4" class="st9" width="9.9" height="15.3"/>
					<rect x="-391.5" y="984.6" class="st10" width="38" height="15.3"/>
				</g>
				<rect x="-424.3" y="824.7" class="st11" width="103.4" height="9.8"/>
			</g>
		</g>
		<g>
			<defs>
				<circle id="SVGID_11_" cx="-410.8" cy="912.8" r="125"/>
			</defs>
			<clipPath id="SVGID_12_">
				<use xlink:href="#SVGID_11_"  style="overflow:visible;"/>
			</clipPath>
			<g class="st12">
				<rect x="-351.2" y="859.4" class="st13" width="60.2" height="16.1"/>
				<rect x="-356.4" y="873.6" class="st14" width="70.6" height="126.3"/>
				<rect x="-340.3" y="983.6" class="st15" width="38.2" height="16.4"/>
				<g>
					<g>
						<rect x="-307.7" y="966.1" class="st9" width="16.4" height="13.6"/>
						<rect x="-329.3" y="966.1" class="st9" width="16.4" height="13.6"/>
						<rect x="-350.8" y="966.1" class="st9" width="16.4" height="13.6"/>
						<rect x="-307.7" y="883.2" class="st9" width="16.4" height="13.6"/>
						<rect x="-329.3" y="883.2" class="st9" width="16.4" height="13.6"/>
						<rect x="-350.8" y="883.2" class="st9" width="16.4" height="13.6"/>
					</g>
					<rect x="-310.7" y="862.7" class="st9" width="14.3" height="7.6"/>
					<rect x="-328.2" y="862.7" class="st9" width="14.3" height="7.6"/>
					<rect x="-345.8" y="862.7" class="st9" width="14.3" height="7.6"/>
				</g>
			</g>
		</g>
		<g>
			<defs>
				<circle id="SVGID_13_" cx="-410.8" cy="912.8" r="125"/>
			</defs>
			<clipPath id="SVGID_14_">
				<use xlink:href="#SVGID_13_"  style="overflow:visible;"/>
			</clipPath>
			<g class="st16">
				<rect x="-541.7" y="912.2" class="st17" width="130.9" height="87.7"/>
				<rect x="-492.2" y="983.6" class="st18" width="38.2" height="16.4"/>
				<g>
					<rect x="-435" y="966.1" class="st9" width="14.8" height="13.6"/>
					<rect x="-435" y="945.8" class="st9" width="14.8" height="13.6"/>
					<rect x="-435" y="925.6" class="st9" width="14.8" height="13.6"/>
					<rect x="-532.4" y="966.1" class="st9" width="14.8" height="13.6"/>
					<rect x="-532.4" y="945.8" class="st9" width="14.8" height="13.6"/>
					<rect x="-532.4" y="925.6" class="st9" width="14.8" height="13.6"/>
				</g>
				<rect x="-541.7" y="898.8" class="st18" width="130.9" height="13.4"/>
				<polygon class="st18" points="-410.8,873.6 -447,888.8 -447,912.2 -410.8,912.2 				"/>
				<polygon class="st9" points="-420.1,884.2 -440.8,892.8 -440.8,898.8 -420.1,898.8 				"/>
			</g>
		</g>
		<g>
			<defs>
				<circle id="SVGID_15_" cx="-410.8" cy="912.8" r="125"/>
			</defs>
			<clipPath id="SVGID_16_">
				<use xlink:href="#SVGID_15_"  style="overflow:visible;"/>
			</clipPath>
			<g class="st19">
				<path class="st20" d="M-494.1,850c0.5,2.6,1.4,5.1,2.8,7.4c2,3.7,5.3,7.9,10.7,12.2c2.7,2.2,4.9,3.9,6.5,5.2
					c2,1.7,3.1,2.7,3.5,3c0.1,0.1,0.1,0.1,0.1,0.1h0.1l1.3,4.3h-0.8c-0.4,0-0.8,0.3-0.8,0.7c0,0.4,0.3,0.7,0.8,0.7h0.3v5.7
					c0,1.3,1.8,3.8,5.7,3.8v-10.9v-4.3v-57l0,0c-16.8-0.1-30.5,11.6-30.5,25.5C-494.4,846.4-494.5,847.7-494.1,850z M-469.8,878h0.8
					h1.7h1.8h1.3v4.3h-4.2"/>
				<g>
					<path class="st21" d="M-458.5,883.8v5.6c0,4.9-10.3,5.2-10.3,0v-5.6H-458.5z"/>
					<rect x="-463.9" y="877.3" class="st21" width="0.5" height="6.1"/>
					<g>
						<polygon class="st21" points="-459.8,883.4 -459.3,883.4 -457.6,877.3 -458.1,877.3 						"/>
						<polygon class="st21" points="-467.6,883.4 -468.1,883.4 -469.8,877.3 -469.3,877.3 						"/>
					</g>
					<g>
						<path class="st22" d="M-492.1,850c-0.4-2.2-0.3-3.6-0.3-3.6c0-13.9,12.8-25.5,28.7-25.5c15.8,0,28.7,11.6,28.7,25.5
							c0,0,0.1,1.3-0.3,3.6c-0.4,2.6-1.3,5.1-2.6,7.4c-1.9,3.7-5,7.9-10.2,12.2c-6.6,5.5-9.6,8.4-9.6,8.4h-6h-6c0,0-3-2.9-9.6-8.4
							c-5.2-4.3-8.3-8.5-10.2-12.2C-490.7,855.1-491.6,852.6-492.1,850z"/>
						<path class="st23" d="M-485.9,850c-0.3-2.2-0.2-3.6-0.2-3.6c0-13.9,10-25.5,22.4-25.5c12.4,0,22.4,11.6,22.4,25.5
							c0,0,0.1,1.3-0.2,3.6c-0.3,2.6-1,5.1-2,7.4c-1.5,3.7-3.9,7.9-8,12.2c-5.2,5.5-7.5,8.4-7.5,8.4h-4.7h-4.7c0,0-2.3-2.9-7.5-8.4
							c-4-4.3-6.5-8.5-8-12.2C-484.9,855.1-485.6,852.6-485.9,850z"/>
						<path class="st24" d="M-478.4,850c-0.2-2.2-0.2-3.6-0.2-3.6c0-13.9,6.7-25.5,14.9-25.5c8.2,0,14.9,11.6,14.9,25.5
							c0,0,0.1,1.3-0.2,3.6c-0.2,2.6-0.7,5.1-1.4,7.4c-1,3.7-2.6,7.9-5.3,12.2c-3.4,5.5-5,8.4-5,8.4h-3.1h-3.1c0,0-1.5-2.9-5-8.4
							c-2.7-4.3-4.3-8.5-5.3-12.2C-477.7,855.1-478.2,852.6-478.4,850z"/>
						<path class="st25" d="M-470.4,850c-0.1-2.2-0.1-3.6-0.1-3.6c0-13.9,3.1-25.5,6.8-25.5c3.8,0,6.8,11.6,6.8,25.5
							c0,0,0,1.3-0.1,3.6c-0.1,2.6-0.3,5.1-0.6,7.4c-0.4,3.7-1.2,7.9-2.4,12.2c-1.6,5.5-2.3,8.4-2.3,8.4h-1.4h-1.4
							c0,0-0.7-2.9-2.3-8.4c-1.2-4.3-2-8.5-2.4-12.2C-470.1,855.1-470.3,852.6-470.4,850z"/>
						<path class="st26" d="M-454.3,874.9c-2.3,2.1-3.4,3.1-3.4,3.1h-6h-6c0,0-1.1-1.1-3.4-3.1H-454.3z"/>
					</g>
					<path class="st27" d="M-469.9,883c0,0.4,0.3,0.7,0.7,0.7h10.9c0.4,0,0.7-0.3,0.7-0.7l0,0c0-0.4-0.3-0.7-0.7-0.7h-10.8
						C-469.5,882.3-469.9,882.6-469.9,883L-469.9,883z"/>
				</g>
				<path class="st28" d="M-492.1,850c0.4,2.6,1.3,5.1,2.6,7.4c1.9,3.7,5,7.9,10.2,12.2c2.6,2.2,4.6,3.9,6.2,5.2
					c1.9,1.7,3,2.7,3.3,3c0.1,0.1,0.1,0.1,0.1,0.1h0.1l1.2,4.3h-0.8c-0.5,0-0.8,0.5-0.7,1c0.1,0.3,0.4,0.5,0.7,0.5h0.3v5.6
					c0,3.2,3.7,3.8,5.4,3.8v-10.9v-4.3v-57c-15.9-0.1-28.9,11.6-28.9,25.5C-492.4,846.4-492.5,847.7-492.1,850z M-469.1,878h0.7h1.6
					h1.7h1.2v4.3h-4L-469.1,878z"/>
				<path class="st29" d="M-459.8,886c0,0.8,0.6,1.3,1.3,1.3s1.3-0.5,1.3-1.3c0-0.8-1.3-2.2-1.3-2.2S-459.8,885.1-459.8,886z"/>
				<path class="st29" d="M-464.7,886c0,0.8,0.6,1.3,1.3,1.3c0.7,0,1.3-0.5,1.3-1.3c0-0.8-1.3-2.2-1.3-2.2S-464.7,885.1-464.7,886z"
					/>
				<path class="st29" d="M-470.1,886c0,0.8,0.6,1.3,1.3,1.3c0.7,0,1.3-0.5,1.3-1.3c0-0.8-1.3-2.2-1.3-2.2S-470.1,885.1-470.1,886z"
					/>
			</g>
		</g>
		<g>
			<defs>
				<circle id="SVGID_17_" cx="-410.8" cy="912.8" r="125"/>
			</defs>
			<clipPath id="SVGID_18_">
				<use xlink:href="#SVGID_17_"  style="overflow:visible;"/>
			</clipPath>
			<rect x="-552.4" y="1000.1" class="st30" width="283.2" height="37.7"/>
		</g>
		<g>
			<defs>
				<circle id="SVGID_19_" cx="-410.8" cy="912.8" r="125"/>
			</defs>
			<clipPath id="SVGID_20_">
				<use xlink:href="#SVGID_19_"  style="overflow:visible;"/>
			</clipPath>
			<line class="st31" x1="-552.4" y1="1005.5" x2="-269.2" y2="1005.5"/>
		</g>
		<g>
			<defs>
				<circle id="SVGID_21_" cx="-410.8" cy="912.8" r="125"/>
			</defs>
			<clipPath id="SVGID_22_">
				<use xlink:href="#SVGID_21_"  style="overflow:visible;"/>
			</clipPath>
			<line class="st32" x1="-552.4" y1="1032.4" x2="-269.2" y2="1032.4"/>
		</g>
		<g>
			<defs>
				<circle id="SVGID_23_" cx="-410.8" cy="912.8" r="125"/>
			</defs>
			<clipPath id="SVGID_24_">
				<use xlink:href="#SVGID_23_"  style="overflow:visible;"/>
			</clipPath>
			<line class="st33" x1="-552.4" y1="1018.9" x2="-269.2" y2="1018.9"/>
		</g>
		<g>
			<defs>
				<circle id="SVGID_25_" cx="-410.8" cy="912.8" r="125"/>
			</defs>
			<clipPath id="SVGID_26_">
				<use xlink:href="#SVGID_25_"  style="overflow:visible;"/>
			</clipPath>
			<g class="st34">
				<path class="st35" d="M-384.1,999.6h-7.3c-3.1,0-6.2,3.8-9,5.6c-2,1.3-3.1,1.3-4.1,1.6c-1.6,0.4-2.4,1.4-2.9,2.2
					c-0.4,0.8-0.6,2.6-0.6,3.5c0,1,0.7,1.4,1.3,1.4h30.8c0.7,0,1-0.8,1-1.5c0.1-1,0.2-2.9,0-4C-375.5,1005-378.2,999.6-384.1,999.6z
					"/>
				<path class="st36" d="M-408,1012.4c0-0.1,0-0.3,0-0.4l33.3-0.5c0,0.3,0,0.6-0.1,0.8c-0.1,0.6-0.4,1.5-1,1.5h-30.8
					C-407.3,1013.9-408,1013.4-408,1012.4z"/>
				<path class="st36" d="M-377.4,1013.9c0-3.2-2-4.4-4.4-4.4c-2.5,0-4.4,1.3-4.4,4.4H-377.4z"/>
				<circle class="st37" cx="-381.8" cy="1013.9" r="3.5"/>
				<circle class="st38" cx="-381.8" cy="1013.9" r="2.3"/>
				<path class="st36" d="M-396,1013.9c0-3.2-2-4.4-4.4-4.4c-2.5,0-4.4,1.3-4.4,4.4H-396z"/>
				<circle class="st37" cx="-400.5" cy="1013.9" r="3.5"/>
				<circle class="st38" cx="-400.5" cy="1013.9" r="2.3"/>
				<path class="st9" d="M-391.8,1000.4c0,0-4.2,0.7-6.8,5.5h6.8V1000.4z"/>
				<rect x="-391" y="1000.4" class="st9" width="7.2" height="5.5"/>
				<path class="st9" d="M-383,1000.4v5.5c0,0,3.4,0,5.4,0C-375.5,1005.9-379,1000.6-383,1000.4z"/>
				<path class="st36" d="M-392.3,1006.9c0,0.2,0.1,0.3,0.3,0.3h0.9c0.2,0,0.3-0.1,0.3-0.3v-0.2c0-0.2-0.1-0.3-0.3-0.3h-0.9
					c-0.2,0-0.3,0.1-0.3,0.3V1006.9z"/>
				<path class="st36" d="M-384.9,1006.9c0,0.2,0.1,0.3,0.3,0.3h0.9c0.2,0,0.3-0.1,0.3-0.3v-0.2c0-0.2-0.1-0.3-0.3-0.3h-0.9
					c-0.2,0-0.3,0.1-0.3,0.3V1006.9z"/>
				<path class="st36" d="M-399.3,1006.1c0,0.2,0.2,0.3,0.4,0.3l1.2-0.2c0.2,0,0.3-0.2,0.3-0.4v-0.3c0-0.2-0.2-0.3-0.4-0.3l-1.2,0.2
					c-0.2,0-0.3,0.2-0.3,0.4V1006.1z"/>
				<path class="st4" d="M-406.4,1007.8c0.4,0.3,0.8,0.8,0.8,1.4c0,0.9-0.7,1.6-1.5,1.6c-0.2,0-0.5-0.1-0.7-0.2
					c0.1-0.6,0.2-1.2,0.4-1.6C-407.2,1008.6-406.9,1008.1-406.4,1007.8z"/>
			</g>
		</g>
	</g>
</g>
<g>
	<path class="st4" d="M-461.6,982.9l-4.3-13.4h-20.2l-4.5,13.4h-19.3l25.9-69.7h15.6l26.1,69.7H-461.6z M-471.1,954.1l-4.9-14.6
		l-4.9,14.6H-471.1z"/>
	<path class="st39" d="M-464.2,967.2h-23.5l-4.5,13.4h-14.3l24.2-65h12.4l24.3,65h-14.3L-464.2,967.2z M-484.1,956.4h16.2l-8.1-24.3
		L-484.1,956.4z"/>
</g>
<g>
	<path class="st4" d="M-407.3,901.6V841h22c3.7,0,6.6,0.3,9.3,1c3.3,0.9,5.5,1.9,7.4,3.3c2.1,1.4,3.7,3.4,4.9,5.7
		c1.1,2.2,1.6,4.8,1.6,8c0,1.6-0.2,3-0.6,4.4c-0.3,1.4-1,2.8-1.9,4.1c-0.8,1.1-1.6,2-2.4,2.8c1.5,1,2.7,2.2,3.6,3.5
		c0.9,1.3,1.6,2.8,2,4.3c0.4,1.3,0.6,2.9,0.6,4.6c0,6.2-2.1,11-6.1,14.3c-4.1,3.1-9.4,4.6-16.4,4.6H-407.3z M-383.4,887
		c1.3,0,2.2-0.1,2.8-0.4c0.9-0.3,1.4-0.6,1.9-1c0.4-0.3,0.6-0.6,0.9-1.3l0.1-0.1c0.1-0.2,0.3-0.8,0.3-1.6c0-1-0.1-1.8-0.3-2.5
		c-0.1-0.4-0.4-0.9-0.8-1.3c-0.4-0.4-0.8-0.6-1.3-0.8l-0.1,0l-0.1-0.1c-0.7-0.3-1.6-0.4-2.8-0.4h-7.4v9.4H-383.4z M-384.7,864.2
		c2.2,0,3.8-0.4,4.7-1.2c0.9-0.8,1.3-1.7,1.3-3c0-2.5-0.8-3-1-3.2c-0.7-0.5-2.2-1.1-5.3-1.1h-5.3v8.5H-384.7z"/>
	<path class="st40" d="M-404.6,898.9v-55.2h19.3c3.2,0,6.1,0.3,8.6,0.9c2.6,0.7,4.7,1.5,6.5,2.8c1.8,1.2,3.1,2.8,4,4.7
		c0.9,1.9,1.3,4.2,1.3,6.7c0,1.2-0.1,2.4-0.5,3.6c-0.3,1.2-0.8,2.3-1.5,3.2c-0.7,0.9-1.5,1.9-2.4,2.7s-2.2,1.5-3.5,2
		c1.6,0.4,3,1.1,4.2,1.9s2.2,1.8,2.8,2.8c0.8,1.1,1.3,2.3,1.6,3.5c0.4,1.2,0.5,2.6,0.5,3.9c0,5.4-1.8,9.4-5.1,12.1
		c-3.5,2.7-8.4,4-14.7,4H-404.6L-404.6,898.9z M-393.1,866.9h8.4c3,0,5.1-0.7,6.5-1.9s2.2-2.8,2.2-5c0-2.6-0.7-4.3-2.2-5.4
		c-1.5-1.1-3.8-1.6-6.9-1.6h-8V866.9z M-393.1,874.9v14.8h9.7c1.5,0,2.7-0.1,3.8-0.5c1.1-0.4,1.9-0.8,2.7-1.5
		c0.8-0.7,1.2-1.3,1.6-2.3c0.4-0.8,0.5-1.9,0.5-2.8c0-1.2-0.1-2.3-0.4-3.2s-0.8-1.8-1.5-2.4c-0.7-0.7-1.5-1.2-2.6-1.5
		c-1.1-0.4-2.3-0.5-3.8-0.5H-393.1z"/>
</g>
<g>
	<path class="st4" d="M-326.3,961.6c-3.8,0-7.4-0.7-10.6-2.1c-3.3-1.4-6-3.4-8.2-6c-2.2-2.5-3.9-5.6-5-9.3
		c-1.2-3.4-1.7-7.3-1.7-11.8v-3.6c0-4.3,0.6-8.2,1.7-11.9c1.3-3.8,2.9-6.8,5.1-9.3c2.3-2.6,5.1-4.6,8.2-6c3.3-1.4,6.7-2.1,10.5-2.1
		c3.6,0,7,0.5,10.1,1.6c2.9,1,5.4,2.5,7.7,4.6c2.1,1.9,3.7,4.2,4.9,7.1c1.2,2.7,1.9,5.6,2.2,8.7l0.3,3h-16.8l-0.2-2.5
		c-0.1-1.4-0.4-2.7-0.7-3.7c-0.3-0.8-0.7-1.5-1.3-2.3c-0.5-0.5-1.2-0.9-2-1.1c-1.2-0.4-2.6-0.6-3.9-0.6c-3,0-5,1-6.4,3
		c-1.6,2.4-2.4,6.2-2.4,11.4v3.8c0,2.5,0.2,4.8,0.6,7.1c0.3,1.8,0.9,3.2,1.6,4.4c0.7,1.1,1.4,1.8,2.3,2.2c1.3,0.6,2.5,0.8,4,0.8
		c1.7,0,2.9-0.1,3.7-0.4c0.9-0.3,1.6-0.7,2.2-1.2c0.5-0.5,1-1.3,1.5-2.3c0.4-0.8,0.6-1.9,0.7-3.4l0.2-2.5h16.5l-0.1,2.6v2.6l-0.3,0
		c-0.3,2.1-1,4.2-1.9,6.1c-1.2,2.6-2.9,4.9-5.1,6.9c-2.2,1.9-4.8,3.4-7.6,4.5C-319.4,961.1-322.7,961.6-326.3,961.6z"/>
	<path class="st41" d="M-304.1,939.8c-0.1,2.8-0.8,5.4-1.9,7.7c-1.1,2.3-2.6,4.3-4.4,6.1c-1.9,1.6-4.2,3-6.7,3.9
		c-2.7,0.9-5.7,1.5-9.2,1.5c-3.5,0-6.7-0.7-9.6-1.9c-2.8-1.2-5.3-3-7.1-5.3c-2-2.3-3.5-5.1-4.4-8.4c-1.1-3.2-1.6-6.9-1.6-11.1v-3.6
		c0-4,0.5-7.7,1.6-11.1c1.1-3.2,2.6-6.1,4.6-8.4s4.4-4,7.3-5.3c2.8-1.2,5.9-1.9,9.4-1.9c3.4,0,6.5,0.5,9.2,1.5
		c2.7,0.9,4.9,2.3,6.7,4c1.9,1.8,3.2,3.8,4.3,6.2c1.1,2.4,1.8,5,2,7.8h-11.3c-0.1-1.6-0.4-3.1-0.8-4.3c-0.4-1.2-1.1-2.3-1.9-3.2
		c-0.8-0.8-1.9-1.5-3.2-1.9c-1.3-0.4-3-0.7-4.7-0.7c-3.8,0-6.7,1.3-8.6,4.2c-1.9,2.8-2.8,7.1-2.8,12.9v3.8c0,2.8,0.3,5.4,0.7,7.6
		c0.4,2.2,1.1,3.9,2,5.4c0.9,1.5,2,2.6,3.5,3.2s3.1,1.1,5.1,1.1c1.8,0,3.4-0.1,4.6-0.5c1.3-0.4,2.4-1.1,3.2-1.9
		c0.8-0.8,1.5-1.9,2-3.1c0.5-1.2,0.8-2.7,0.9-4.3h11.2V939.8z"/>
</g>
</svg>
